<?xml version="1.0" encoding="us-ascii" standalone="no"?><svg xmlns="http://www.w3.org/2000/svg" xmlns:xlink="http://www.w3.org/1999/xlink" contentStyleType="text/css" height="1493px" preserveAspectRatio="none" style="width:1258px;height:1493px;background:#FEFEFE;" version="1.1" viewBox="0 0 1258 1493" width="1258px" zoomAndPan="magnify"><defs/><g><rect fill="#FEFEFE" height="1493" style="stroke:none;stroke-width:1.0;" width="1258" x="0" y="0"/><!--cluster kiri--><g id="cluster_kiri"><path d="M8.5,6 L31.5,6 A3.75,3.75 0 0 1 34,8.5 L41,29.6094 L807.5,29.6094 A2.5,2.5 0 0 1 810,32.1094 L810,1483.5 A2.5,2.5 0 0 1 807.5,1486 L8.5,1486 A2.5,2.5 0 0 1 6,1483.5 L6,8.5 A2.5,2.5 0 0 1 8.5,6 " fill="none" style="stroke:#000000;stroke-width:1.5;"/><line style="stroke:#000000;stroke-width:1.5;" x1="6" x2="41" y1="29.6094" y2="29.6094"/><text fill="#000000" font-family="sans-serif" font-size="14" font-weight="bold" lengthAdjust="spacing" textLength="22" x="10" y="22.5332">kiri</text></g><!--cluster chat--><g id="cluster_chat"><path d="M32.5,50 L63.5,50 A3.75,3.75 0 0 1 66,52.5 L73,73.6094 L783.5,73.6094 A2.5,2.5 0 0 1 786,76.1094 L786,1459.5 A2.5,2.5 0 0 1 783.5,1462 L32.5,1462 A2.5,2.5 0 0 1 30,1459.5 L30,52.5 A2.5,2.5 0 0 1 32.5,50 " fill="none" style="stroke:#000000;stroke-width:1.5;"/><line style="stroke:#000000;stroke-width:1.5;" x1="30" x2="73" y1="73.6094" y2="73.6094"/><text fill="#000000" font-family="sans-serif" font-size="14" font-weight="bold" lengthAdjust="spacing" textLength="30" x="34" y="66.5332">chat</text></g><!--class Main--><g id="elem_Main"><rect codeLine="13" fill="#E8F4F8" height="83.2188" id="Main" rx="2.5" ry="2.5" style="stroke:#2E5090;stroke-width:0.5;" width="273" x="392.5" y="86"/><ellipse cx="509.75" cy="102" fill="#ADD1B2" rx="11" ry="11" style="stroke:#181818;stroke-width:1.0;"/><path d="M512.5156,97.875 Q512.6719,97.6563 512.8594,97.5469 Q513.0469,97.4375 513.2656,97.4375 Q513.6406,97.4375 513.875,97.7031 Q514.1094,97.9531 514.1094,98.5625 L514.1094,100.0156 Q514.1094,100.625 513.875,100.8906 Q513.6406,101.1563 513.2656,101.1563 Q512.9219,101.1563 512.7188,100.9531 Q512.5156,100.7656 512.4063,100.25 Q512.3594,99.8906 512.1719,99.7031 Q511.8438,99.3281 511.2344,99.1094 Q510.625,98.8906 510,98.8906 Q509.2344,98.8906 508.5938,99.2188 Q507.9688,99.5469 507.4688,100.2969 Q506.9844,101.0469 506.9844,102.0781 L506.9844,103.1719 Q506.9844,104.4063 507.875,105.2344 Q508.7656,106.0469 510.3594,106.0469 Q511.2969,106.0469 511.9531,105.7969 Q512.3438,105.6406 512.7656,105.2031 Q513.0313,104.9375 513.1719,104.8594 Q513.3281,104.7813 513.5313,104.7813 Q513.8594,104.7813 514.1094,105.0469 Q514.375,105.2969 514.375,105.6406 Q514.375,105.9844 514.0313,106.3906 Q513.5313,106.9688 512.7344,107.2969 Q511.6563,107.75 510.3594,107.75 Q508.8438,107.75 507.6406,107.125 Q506.6563,106.625 505.9688,105.5625 Q505.2813,104.4844 505.2813,103.2031 L505.2813,102.0469 Q505.2813,100.7188 505.8906,99.5781 Q506.5156,98.4219 507.6094,97.8125 Q508.7031,97.1875 509.9375,97.1875 Q510.6719,97.1875 511.3125,97.3594 Q511.9688,97.5156 512.5156,97.875 Z " fill="#000000"/><text fill="#000000" font-family="sans-serif" font-size="14" lengthAdjust="spacing" textLength="30" x="530.25" y="107.7285">Main</text><line style="stroke:#2E5090;stroke-width:0.5;" x1="393.5" x2="664.5" y1="118" y2="118"/><line style="stroke:#2E5090;stroke-width:0.5;" x1="393.5" x2="664.5" y1="126" y2="126"/><ellipse cx="403.5" cy="140.3047" fill="#84BE84" rx="3" ry="3" style="stroke:#038048;stroke-width:1.0;"/><text fill="#000000" font-family="sans-serif" font-size="14" lengthAdjust="spacing" text-decoration="underline" textLength="155" x="412.5" y="144.5332">main(String[] args) : void</text><rect fill="#F24D5C" height="6" style="stroke:#C82930;stroke-width:1.0;" width="6" x="400.5" y="154.9141"/><text fill="#000000" font-family="sans-serif" font-size="14" lengthAdjust="spacing" textLength="247" x="412.5" y="162.1426">router(String mode, String[] args) : void</text></g><!--class ChatServer--><g id="elem_ChatServer"><rect codeLine="18" fill="#E8F4F8" height="136.0469" id="ChatServer" rx="2.5" ry="2.5" style="stroke:#2E5090;stroke-width:0.5;" width="152" x="348" y="247"/><ellipse cx="384.6" cy="263" fill="#ADD1B2" rx="11" ry="11" style="stroke:#181818;stroke-width:1.0;"/><path d="M387.3656,258.875 Q387.5219,258.6563 387.7094,258.5469 Q387.8969,258.4375 388.1156,258.4375 Q388.4906,258.4375 388.725,258.7031 Q388.9594,258.9531 388.9594,259.5625 L388.9594,261.0156 Q388.9594,261.625 388.725,261.8906 Q388.4906,262.1563 388.1156,262.1563 Q387.7719,262.1563 387.5688,261.9531 Q387.3656,261.7656 387.2563,261.25 Q387.2094,260.8906 387.0219,260.7031 Q386.6938,260.3281 386.0844,260.1094 Q385.475,259.8906 384.85,259.8906 Q384.0844,259.8906 383.4438,260.2188 Q382.8188,260.5469 382.3188,261.2969 Q381.8344,262.0469 381.8344,263.0781 L381.8344,264.1719 Q381.8344,265.4063 382.725,266.2344 Q383.6156,267.0469 385.2094,267.0469 Q386.1469,267.0469 386.8031,266.7969 Q387.1938,266.6406 387.6156,266.2031 Q387.8813,265.9375 388.0219,265.8594 Q388.1781,265.7813 388.3813,265.7813 Q388.7094,265.7813 388.9594,266.0469 Q389.225,266.2969 389.225,266.6406 Q389.225,266.9844 388.8813,267.3906 Q388.3813,267.9688 387.5844,268.2969 Q386.5063,268.75 385.2094,268.75 Q383.6938,268.75 382.4906,268.125 Q381.5063,267.625 380.8188,266.5625 Q380.1313,265.4844 380.1313,264.2031 L380.1313,263.0469 Q380.1313,261.7188 380.7406,260.5781 Q381.3656,259.4219 382.4594,258.8125 Q383.5531,258.1875 384.7875,258.1875 Q385.5219,258.1875 386.1625,258.3594 Q386.8188,258.5156 387.3656,258.875 Z " fill="#000000"/><text fill="#000000" font-family="sans-serif" font-size="14" lengthAdjust="spacing" textLength="72" x="403.4" y="268.7285">ChatServer</text><line style="stroke:#2E5090;stroke-width:0.5;" x1="349" x2="499" y1="279" y2="279"/><rect fill="none" height="6" style="stroke:#C82930;stroke-width:1.0;" width="6" x="356" y="290.3047"/><text fill="#000000" font-family="sans-serif" font-size="14" lengthAdjust="spacing" textLength="48" x="368" y="297.5332">port: int</text><rect fill="none" height="6" style="stroke:#C82930;stroke-width:1.0;" width="6" x="356" y="307.9141"/><text fill="#000000" font-family="sans-serif" font-size="14" lengthAdjust="spacing" textLength="90" x="368" y="315.1426">server: Server</text><line style="stroke:#2E5090;stroke-width:0.5;" x1="349" x2="499" y1="322.2188" y2="322.2188"/><ellipse cx="359" cy="336.5234" fill="#84BE84" rx="3" ry="3" style="stroke:#038048;stroke-width:1.0;"/><text fill="#000000" font-family="sans-serif" font-size="14" lengthAdjust="spacing" textLength="126" x="368" y="340.752">ChatServer(int port)</text><ellipse cx="359" cy="354.1328" fill="#84BE84" rx="3" ry="3" style="stroke:#038048;stroke-width:1.0;"/><text fill="#000000" font-family="sans-serif" font-size="14" lengthAdjust="spacing" textLength="76" x="368" y="358.3613">start() : void</text><ellipse cx="359" cy="371.7422" fill="#84BE84" rx="3" ry="3" style="stroke:#038048;stroke-width:1.0;"/><text fill="#000000" font-family="sans-serif" font-size="14" lengthAdjust="spacing" textLength="75" x="368" y="375.9707">stop() : void</text></g><!--class ChatClient--><g id="elem_ChatClient"><rect codeLine="26" fill="#E8F4F8" height="188.875" id="ChatClient" rx="2.5" ry="2.5" style="stroke:#2E5090;stroke-width:0.5;" width="299" x="470.5" y="413"/><ellipse cx="582.75" cy="429" fill="#ADD1B2" rx="11" ry="11" style="stroke:#181818;stroke-width:1.0;"/><path d="M585.5156,424.875 Q585.6719,424.6563 585.8594,424.5469 Q586.0469,424.4375 586.2656,424.4375 Q586.6406,424.4375 586.875,424.7031 Q587.1094,424.9531 587.1094,425.5625 L587.1094,427.0156 Q587.1094,427.625 586.875,427.8906 Q586.6406,428.1563 586.2656,428.1563 Q585.9219,428.1563 585.7188,427.9531 Q585.5156,427.7656 585.4063,427.25 Q585.3594,426.8906 585.1719,426.7031 Q584.8438,426.3281 584.2344,426.1094 Q583.625,425.8906 583,425.8906 Q582.2344,425.8906 581.5938,426.2188 Q580.9688,426.5469 580.4688,427.2969 Q579.9844,428.0469 579.9844,429.0781 L579.9844,430.1719 Q579.9844,431.4063 580.875,432.2344 Q581.7656,433.0469 583.3594,433.0469 Q584.2969,433.0469 584.9531,432.7969 Q585.3438,432.6406 585.7656,432.2031 Q586.0313,431.9375 586.1719,431.8594 Q586.3281,431.7813 586.5313,431.7813 Q586.8594,431.7813 587.1094,432.0469 Q587.375,432.2969 587.375,432.6406 Q587.375,432.9844 587.0313,433.3906 Q586.5313,433.9688 585.7344,434.2969 Q584.6563,434.75 583.3594,434.75 Q581.8438,434.75 580.6406,434.125 Q579.6563,433.625 578.9688,432.5625 Q578.2813,431.4844 578.2813,430.2031 L578.2813,429.0469 Q578.2813,427.7188 578.8906,426.5781 Q579.5156,425.4219 580.6094,424.8125 Q581.7031,424.1875 582.9375,424.1875 Q583.6719,424.1875 584.3125,424.3594 Q584.9688,424.5156 585.5156,424.875 Z " fill="#000000"/><text fill="#000000" font-family="sans-serif" font-size="14" lengthAdjust="spacing" textLength="66" x="603.25" y="434.7285">ChatClient</text><line style="stroke:#2E5090;stroke-width:0.5;" x1="471.5" x2="768.5" y1="445" y2="445"/><rect fill="none" height="6" style="stroke:#C82930;stroke-width:1.0;" width="6" x="478.5" y="456.3047"/><text fill="#000000" font-family="sans-serif" font-size="14" lengthAdjust="spacing" textLength="72" x="490.5" y="463.5332">host: String</text><rect fill="none" height="6" style="stroke:#C82930;stroke-width:1.0;" width="6" x="478.5" y="473.9141"/><text fill="#000000" font-family="sans-serif" font-size="14" lengthAdjust="spacing" textLength="48" x="490.5" y="481.1426">port: int</text><rect fill="none" height="6" style="stroke:#C82930;stroke-width:1.0;" width="6" x="478.5" y="491.5234"/><text fill="#000000" font-family="sans-serif" font-size="14" lengthAdjust="spacing" textLength="170" x="490.5" y="498.752">channel: ManagedChannel</text><line style="stroke:#2E5090;stroke-width:0.5;" x1="471.5" x2="768.5" y1="505.8281" y2="505.8281"/><ellipse cx="481.5" cy="520.1328" fill="#84BE84" rx="3" ry="3" style="stroke:#038048;stroke-width:1.0;"/><text fill="#000000" font-family="sans-serif" font-size="14" lengthAdjust="spacing" textLength="196" x="490.5" y="524.3613">ChatClient(String host, int port)</text><ellipse cx="481.5" cy="537.7422" fill="#84BE84" rx="3" ry="3" style="stroke:#038048;stroke-width:1.0;"/><text fill="#000000" font-family="sans-serif" font-size="14" lengthAdjust="spacing" textLength="200" x="490.5" y="541.9707">register(String username) : void</text><ellipse cx="481.5" cy="555.3516" fill="#84BE84" rx="3" ry="3" style="stroke:#038048;stroke-width:1.0;"/><text fill="#000000" font-family="sans-serif" font-size="14" lengthAdjust="spacing" textLength="234" x="490.5" y="559.5801">sendMessage(String message) : void</text><ellipse cx="481.5" cy="572.9609" fill="#84BE84" rx="3" ry="3" style="stroke:#038048;stroke-width:1.0;"/><text fill="#000000" font-family="sans-serif" font-size="14" lengthAdjust="spacing" textLength="158" x="490.5" y="577.1895">receiveMessages() : void</text><rect fill="#F24D5C" height="6" style="stroke:#C82930;stroke-width:1.0;" width="6" x="478.5" y="587.5703"/><text fill="#000000" font-family="sans-serif" font-size="14" lengthAdjust="spacing" textLength="273" x="490.5" y="594.7988">formatMessage(ChatMessage msg) : String</text></g><!--class ChatServiceImpl--><g id="elem_ChatServiceImpl"><rect codeLine="37" fill="#E8F4F8" height="153.6563" id="ChatServiceImpl" rx="2.5" ry="2.5" style="stroke:#2E5090;stroke-width:0.5;" width="361" x="215.5" y="632"/><ellipse cx="340.75" cy="648" fill="#ADD1B2" rx="11" ry="11" style="stroke:#181818;stroke-width:1.0;"/><path d="M343.5156,643.875 Q343.6719,643.6563 343.8594,643.5469 Q344.0469,643.4375 344.2656,643.4375 Q344.6406,643.4375 344.875,643.7031 Q345.1094,643.9531 345.1094,644.5625 L345.1094,646.0156 Q345.1094,646.625 344.875,646.8906 Q344.6406,647.1563 344.2656,647.1563 Q343.9219,647.1563 343.7188,646.9531 Q343.5156,646.7656 343.4063,646.25 Q343.3594,645.8906 343.1719,645.7031 Q342.8438,645.3281 342.2344,645.1094 Q341.625,644.8906 341,644.8906 Q340.2344,644.8906 339.5938,645.2188 Q338.9688,645.5469 338.4688,646.2969 Q337.9844,647.0469 337.9844,648.0781 L337.9844,649.1719 Q337.9844,650.4063 338.875,651.2344 Q339.7656,652.0469 341.3594,652.0469 Q342.2969,652.0469 342.9531,651.7969 Q343.3438,651.6406 343.7656,651.2031 Q344.0313,650.9375 344.1719,650.8594 Q344.3281,650.7813 344.5313,650.7813 Q344.8594,650.7813 345.1094,651.0469 Q345.375,651.2969 345.375,651.6406 Q345.375,651.9844 345.0313,652.3906 Q344.5313,652.9688 343.7344,653.2969 Q342.6563,653.75 341.3594,653.75 Q339.8438,653.75 338.6406,653.125 Q337.6563,652.625 336.9688,651.5625 Q336.2813,650.4844 336.2813,649.2031 L336.2813,648.0469 Q336.2813,646.7188 336.8906,645.5781 Q337.5156,644.4219 338.6094,643.8125 Q339.7031,643.1875 340.9375,643.1875 Q341.6719,643.1875 342.3125,643.3594 Q342.9688,643.5156 343.5156,643.875 Z " fill="#000000"/><text fill="#000000" font-family="sans-serif" font-size="14" lengthAdjust="spacing" textLength="102" x="361.25" y="653.7285">ChatServiceImpl</text><line style="stroke:#2E5090;stroke-width:0.5;" x1="216.5" x2="575.5" y1="664" y2="664"/><rect fill="none" height="6" style="stroke:#C82930;stroke-width:1.0;" width="6" x="223.5" y="675.3047"/><text fill="#000000" font-family="sans-serif" font-size="14" lengthAdjust="spacing" textLength="182" x="235.5" y="682.5332">registeredUsers: Set&lt;String&gt;</text><rect fill="none" height="6" style="stroke:#C82930;stroke-width:1.0;" width="6" x="223.5" y="692.9141"/><text fill="#000000" font-family="sans-serif" font-size="14" lengthAdjust="spacing" textLength="139" x="235.5" y="700.1426">chatRoom: ChatRoom</text><line style="stroke:#2E5090;stroke-width:0.5;" x1="216.5" x2="575.5" y1="707.2188" y2="707.2188"/><ellipse cx="226.5" cy="721.5234" fill="#84BE84" rx="3" ry="3" style="stroke:#038048;stroke-width:1.0;"/><text fill="#000000" font-family="sans-serif" font-size="14" lengthAdjust="spacing" textLength="314" x="235.5" y="725.752">register(RegisterRequest, StreamObserver) : void</text><ellipse cx="226.5" cy="739.1328" fill="#84BE84" rx="3" ry="3" style="stroke:#038048;stroke-width:1.0;"/><text fill="#000000" font-family="sans-serif" font-size="14" lengthAdjust="spacing" textLength="335" x="235.5" y="743.3613">sendMessage(ChatMessage, StreamObserver) : void</text><ellipse cx="226.5" cy="756.7422" fill="#84BE84" rx="3" ry="3" style="stroke:#038048;stroke-width:1.0;"/><text fill="#000000" font-family="sans-serif" font-size="14" lengthAdjust="spacing" textLength="309" x="235.5" y="760.9707">receiveMessages(Empty, StreamObserver) : void</text><rect fill="#F24D5C" height="6" style="stroke:#C82930;stroke-width:1.0;" width="6" x="223.5" y="771.3516"/><text fill="#000000" font-family="sans-serif" font-size="14" lengthAdjust="spacing" textLength="198" x="235.5" y="778.5801">validateUsername(String) : void</text></g><!--class ChatRoom--><g id="elem_ChatRoom"><rect codeLine="46" fill="#E8F4F8" height="171.2656" id="ChatRoom" rx="2.5" ry="2.5" style="stroke:#2E5090;stroke-width:0.5;" width="369" x="141.5" y="864"/><ellipse cx="288.25" cy="880" fill="#ADD1B2" rx="11" ry="11" style="stroke:#181818;stroke-width:1.0;"/><path d="M291.0156,875.875 Q291.1719,875.6563 291.3594,875.5469 Q291.5469,875.4375 291.7656,875.4375 Q292.1406,875.4375 292.375,875.7031 Q292.6094,875.9531 292.6094,876.5625 L292.6094,878.0156 Q292.6094,878.625 292.375,878.8906 Q292.1406,879.1563 291.7656,879.1563 Q291.4219,879.1563 291.2188,878.9531 Q291.0156,878.7656 290.9063,878.25 Q290.8594,877.8906 290.6719,877.7031 Q290.3438,877.3281 289.7344,877.1094 Q289.125,876.8906 288.5,876.8906 Q287.7344,876.8906 287.0938,877.2188 Q286.4688,877.5469 285.9688,878.2969 Q285.4844,879.0469 285.4844,880.0781 L285.4844,881.1719 Q285.4844,882.4063 286.375,883.2344 Q287.2656,884.0469 288.8594,884.0469 Q289.7969,884.0469 290.4531,883.7969 Q290.8438,883.6406 291.2656,883.2031 Q291.5313,882.9375 291.6719,882.8594 Q291.8281,882.7813 292.0313,882.7813 Q292.3594,882.7813 292.6094,883.0469 Q292.875,883.2969 292.875,883.6406 Q292.875,883.9844 292.5313,884.3906 Q292.0313,884.9688 291.2344,885.2969 Q290.1563,885.75 288.8594,885.75 Q287.3438,885.75 286.1406,885.125 Q285.1563,884.625 284.4688,883.5625 Q283.7813,882.4844 283.7813,881.2031 L283.7813,880.0469 Q283.7813,878.7188 284.3906,877.5781 Q285.0156,876.4219 286.1094,875.8125 Q287.2031,875.1875 288.4375,875.1875 Q289.1719,875.1875 289.8125,875.3594 Q290.4688,875.5156 291.0156,875.875 Z " fill="#000000"/><text fill="#000000" font-family="sans-serif" font-size="14" lengthAdjust="spacing" textLength="67" x="308.75" y="885.7285">ChatRoom</text><line style="stroke:#2E5090;stroke-width:0.5;" x1="142.5" x2="509.5" y1="896" y2="896"/><rect fill="none" height="6" style="stroke:#C82930;stroke-width:1.0;" width="6" x="149.5" y="907.3047"/><text fill="#000000" font-family="sans-serif" font-size="14" lengthAdjust="spacing" text-decoration="underline" textLength="128" x="161.5" y="914.5332">instance: ChatRoom</text><rect fill="none" height="6" style="stroke:#C82930;stroke-width:1.0;" width="6" x="149.5" y="924.9141"/><text fill="#000000" font-family="sans-serif" font-size="14" lengthAdjust="spacing" textLength="237" x="161.5" y="932.1426">sessions: Map&lt;String, ClientSession&gt;</text><line style="stroke:#2E5090;stroke-width:0.5;" x1="142.5" x2="509.5" y1="939.2188" y2="939.2188"/><ellipse cx="152.5" cy="953.5234" fill="#84BE84" rx="3" ry="3" style="stroke:#038048;stroke-width:1.0;"/><text fill="#000000" font-family="sans-serif" font-size="14" lengthAdjust="spacing" text-decoration="underline" textLength="162" x="161.5" y="957.752">getInstance() : ChatRoom</text><ellipse cx="152.5" cy="971.1328" fill="#84BE84" rx="3" ry="3" style="stroke:#038048;stroke-width:1.0;"/><text fill="#000000" font-family="sans-serif" font-size="14" lengthAdjust="spacing" textLength="234" x="161.5" y="975.3613">join(String username) : ClientSession</text><ellipse cx="152.5" cy="988.7422" fill="#84BE84" rx="3" ry="3" style="stroke:#038048;stroke-width:1.0;"/><text fill="#000000" font-family="sans-serif" font-size="14" lengthAdjust="spacing" textLength="343" x="161.5" y="992.9707">broadcastUserMessage(ChatMessageEnvelope) : void</text><ellipse cx="152.5" cy="1006.3516" fill="#84BE84" rx="3" ry="3" style="stroke:#038048;stroke-width:1.0;"/><text fill="#000000" font-family="sans-serif" font-size="14" lengthAdjust="spacing" textLength="186" x="161.5" y="1010.5801">leave(String username) : void</text><rect fill="#F24D5C" height="6" style="stroke:#C82930;stroke-width:1.0;" width="6" x="149.5" y="1020.9609"/><text fill="#000000" font-family="sans-serif" font-size="14" lengthAdjust="spacing" textLength="198" x="161.5" y="1028.1895">broadcast(ChatMessage) : void</text></g><!--class ChatMessageEnvelope--><g id="elem_ChatMessageEnvelope"><rect codeLine="56" fill="#E8F4F8" height="118.4375" id="ChatMessageEnvelope" rx="2.5" ry="2.5" style="stroke:#2E5090;stroke-width:0.5;" width="314" x="419" y="1131"/><ellipse cx="498.75" cy="1147" fill="#ADD1B2" rx="11" ry="11" style="stroke:#181818;stroke-width:1.0;"/><path d="M501.5156,1142.875 Q501.6719,1142.6563 501.8594,1142.5469 Q502.0469,1142.4375 502.2656,1142.4375 Q502.6406,1142.4375 502.875,1142.7031 Q503.1094,1142.9531 503.1094,1143.5625 L503.1094,1145.0156 Q503.1094,1145.625 502.875,1145.8906 Q502.6406,1146.1563 502.2656,1146.1563 Q501.9219,1146.1563 501.7188,1145.9531 Q501.5156,1145.7656 501.4063,1145.25 Q501.3594,1144.8906 501.1719,1144.7031 Q500.8438,1144.3281 500.2344,1144.1094 Q499.625,1143.8906 499,1143.8906 Q498.2344,1143.8906 497.5938,1144.2188 Q496.9688,1144.5469 496.4688,1145.2969 Q495.9844,1146.0469 495.9844,1147.0781 L495.9844,1148.1719 Q495.9844,1149.4063 496.875,1150.2344 Q497.7656,1151.0469 499.3594,1151.0469 Q500.2969,1151.0469 500.9531,1150.7969 Q501.3438,1150.6406 501.7656,1150.2031 Q502.0313,1149.9375 502.1719,1149.8594 Q502.3281,1149.7813 502.5313,1149.7813 Q502.8594,1149.7813 503.1094,1150.0469 Q503.375,1150.2969 503.375,1150.6406 Q503.375,1150.9844 503.0313,1151.3906 Q502.5313,1151.9688 501.7344,1152.2969 Q500.6563,1152.75 499.3594,1152.75 Q497.8438,1152.75 496.6406,1152.125 Q495.6563,1151.625 494.9688,1150.5625 Q494.2813,1149.4844 494.2813,1148.2031 L494.2813,1147.0469 Q494.2813,1145.7188 494.8906,1144.5781 Q495.5156,1143.4219 496.6094,1142.8125 Q497.7031,1142.1875 498.9375,1142.1875 Q499.6719,1142.1875 500.3125,1142.3594 Q500.9688,1142.5156 501.5156,1142.875 Z " fill="#000000"/><text fill="#000000" font-family="sans-serif" font-size="14" lengthAdjust="spacing" textLength="146" x="519.25" y="1152.7285">ChatMessageEnvelope</text><line style="stroke:#2E5090;stroke-width:0.5;" x1="420" x2="732" y1="1163" y2="1163"/><rect fill="none" height="6" style="stroke:#C82930;stroke-width:1.0;" width="6" x="427" y="1174.3047"/><text fill="#000000" font-family="sans-serif" font-size="14" lengthAdjust="spacing" textLength="73" x="439" y="1181.5332">from: String</text><rect fill="none" height="6" style="stroke:#C82930;stroke-width:1.0;" width="6" x="427" y="1191.9141"/><text fill="#000000" font-family="sans-serif" font-size="14" lengthAdjust="spacing" textLength="92" x="439" y="1199.1426">content: String</text><rect fill="none" height="6" style="stroke:#C82930;stroke-width:1.0;" width="6" x="427" y="1209.5234"/><text fill="#000000" font-family="sans-serif" font-size="14" lengthAdjust="spacing" textLength="114" x="439" y="1216.752">timestamp: Instant</text><line style="stroke:#2E5090;stroke-width:0.5;" x1="420" x2="732" y1="1223.8281" y2="1223.8281"/><ellipse cx="430" cy="1238.1328" fill="#84BE84" rx="3" ry="3" style="stroke:#038048;stroke-width:1.0;"/><text fill="#000000" font-family="sans-serif" font-size="14" lengthAdjust="spacing" textLength="288" x="439" y="1242.3613">ChatMessageEnvelope(String, String, Instant)</text></g><!--class ClientSession--><g id="elem_ClientSession"><rect codeLine="63" fill="#E8F4F8" height="153.6563" id="ClientSession" rx="2.5" ry="2.5" style="stroke:#2E5090;stroke-width:0.5;" width="337" x="46.5" y="1113"/><ellipse cx="167.75" cy="1129" fill="#ADD1B2" rx="11" ry="11" style="stroke:#181818;stroke-width:1.0;"/><path d="M170.5156,1124.875 Q170.6719,1124.6563 170.8594,1124.5469 Q171.0469,1124.4375 171.2656,1124.4375 Q171.6406,1124.4375 171.875,1124.7031 Q172.1094,1124.9531 172.1094,1125.5625 L172.1094,1127.0156 Q172.1094,1127.625 171.875,1127.8906 Q171.6406,1128.1563 171.2656,1128.1563 Q170.9219,1128.1563 170.7188,1127.9531 Q170.5156,1127.7656 170.4063,1127.25 Q170.3594,1126.8906 170.1719,1126.7031 Q169.8438,1126.3281 169.2344,1126.1094 Q168.625,1125.8906 168,1125.8906 Q167.2344,1125.8906 166.5938,1126.2188 Q165.9688,1126.5469 165.4688,1127.2969 Q164.9844,1128.0469 164.9844,1129.0781 L164.9844,1130.1719 Q164.9844,1131.4063 165.875,1132.2344 Q166.7656,1133.0469 168.3594,1133.0469 Q169.2969,1133.0469 169.9531,1132.7969 Q170.3438,1132.6406 170.7656,1132.2031 Q171.0313,1131.9375 171.1719,1131.8594 Q171.3281,1131.7813 171.5313,1131.7813 Q171.8594,1131.7813 172.1094,1132.0469 Q172.375,1132.2969 172.375,1132.6406 Q172.375,1132.9844 172.0313,1133.3906 Q171.5313,1133.9688 170.7344,1134.2969 Q169.6563,1134.75 168.3594,1134.75 Q166.8438,1134.75 165.6406,1134.125 Q164.6563,1133.625 163.9688,1132.5625 Q163.2813,1131.4844 163.2813,1130.2031 L163.2813,1129.0469 Q163.2813,1127.7188 163.8906,1126.5781 Q164.5156,1125.4219 165.6094,1124.8125 Q166.7031,1124.1875 167.9375,1124.1875 Q168.6719,1124.1875 169.3125,1124.3594 Q169.9688,1124.5156 170.5156,1124.875 Z " fill="#000000"/><text fill="#000000" font-family="sans-serif" font-size="14" lengthAdjust="spacing" textLength="86" x="188.25" y="1134.7285">ClientSession</text><line style="stroke:#2E5090;stroke-width:0.5;" x1="47.5" x2="382.5" y1="1145" y2="1145"/><rect fill="none" height="6" style="stroke:#C82930;stroke-width:1.0;" width="6" x="54.5" y="1156.3047"/><text fill="#000000" font-family="sans-serif" font-size="14" lengthAdjust="spacing" textLength="108" x="66.5" y="1163.5332">username: String</text><rect fill="none" height="6" style="stroke:#C82930;stroke-width:1.0;" width="6" x="54.5" y="1173.9141"/><text fill="#000000" font-family="sans-serif" font-size="14" lengthAdjust="spacing" textLength="307" x="66.5" y="1181.1426">messageQueue: BlockingQueue&lt;ChatMessage&gt;</text><rect fill="none" height="6" style="stroke:#C82930;stroke-width:1.0;" width="6" x="54.5" y="1191.5234"/><text fill="#000000" font-family="sans-serif" font-size="14" lengthAdjust="spacing" textLength="280" x="66.5" y="1198.752">streamObserver: ServerCallStreamObserver</text><line style="stroke:#2E5090;stroke-width:0.5;" x1="47.5" x2="382.5" y1="1205.8281" y2="1205.8281"/><ellipse cx="57.5" cy="1220.1328" fill="#84BE84" rx="3" ry="3" style="stroke:#038048;stroke-width:1.0;"/><text fill="#000000" font-family="sans-serif" font-size="14" lengthAdjust="spacing" textLength="311" x="66.5" y="1224.3613">ClientSession(String, ServerCallStreamObserver)</text><ellipse cx="57.5" cy="1237.7422" fill="#84BE84" rx="3" ry="3" style="stroke:#038048;stroke-width:1.0;"/><text fill="#000000" font-family="sans-serif" font-size="14" lengthAdjust="spacing" textLength="223" x="66.5" y="1241.9707">sendMessage(ChatMessage) : void</text><ellipse cx="57.5" cy="1255.3516" fill="#84BE84" rx="3" ry="3" style="stroke:#038048;stroke-width:1.0;"/><text fill="#000000" font-family="sans-serif" font-size="14" lengthAdjust="spacing" textLength="89" x="66.5" y="1259.5801">cancel() : void</text></g><!--class StreamObserver--><g id="elem_StreamObserver"><rect codeLine="73" fill="#E8F4F8" height="100.8281" id="StreamObserver" rx="2.5" ry="2.5" style="stroke:#2E5090;stroke-width:0.5;" width="188" x="352" y="1345"/><ellipse cx="385.9" cy="1361" fill="#B4A7E5" rx="11" ry="11" style="stroke:#181818;stroke-width:1.0;"/><path d="M386.8531,1357.6406 L386.8531,1364.2969 L388.5719,1364.2969 Q389.1813,1364.2969 389.4469,1364.5313 Q389.7125,1364.7656 389.7125,1365.1563 Q389.7125,1365.5313 389.4469,1365.7656 Q389.1813,1366 388.5719,1366 L383.4313,1366 Q382.8219,1366 382.5563,1365.7656 Q382.2906,1365.5313 382.2906,1365.1406 Q382.2906,1364.7656 382.5563,1364.5313 Q382.8219,1364.2969 383.4313,1364.2969 L385.15,1364.2969 L385.15,1357.6406 L383.4313,1357.6406 Q382.8219,1357.6406 382.5563,1357.4063 Q382.2906,1357.1719 382.2906,1356.7813 Q382.2906,1356.4063 382.5563,1356.1719 Q382.8219,1355.9375 383.4313,1355.9375 L388.5719,1355.9375 Q389.1813,1355.9375 389.4469,1356.1719 Q389.7125,1356.4063 389.7125,1356.7813 Q389.7125,1357.1719 389.4469,1357.4063 Q389.1813,1357.6406 388.5719,1357.6406 L386.8531,1357.6406 Z " fill="#000000"/><text fill="#000000" font-family="sans-serif" font-size="14" font-style="italic" lengthAdjust="spacing" textLength="103" x="404.1" y="1366.7285">StreamObserver</text><rect fill="#FEFEFE" height="17.0938" style="stroke:#2E5090;stroke-width:1.0;stroke-dasharray:2.0,2.0;" width="9" x="534" y="1342"/><text fill="#000000" font-family="sans-serif" font-size="12" font-style="italic" lengthAdjust="spacing" textLength="7" x="535" y="1355.457">T</text><line style="stroke:#2E5090;stroke-width:0.5;" x1="353" x2="539" y1="1377" y2="1377"/><line style="stroke:#2E5090;stroke-width:0.5;" x1="353" x2="539" y1="1385" y2="1385"/><ellipse cx="363" cy="1399.3047" fill="#84BE84" rx="3" ry="3" style="stroke:#038048;stroke-width:1.0;"/><text fill="#000000" font-family="sans-serif" font-size="14" lengthAdjust="spacing" textLength="100" x="372" y="1403.5332">onNext(T) : void</text><ellipse cx="363" cy="1416.9141" fill="#84BE84" rx="3" ry="3" style="stroke:#038048;stroke-width:1.0;"/><text fill="#000000" font-family="sans-serif" font-size="14" lengthAdjust="spacing" textLength="162" x="372" y="1421.1426">onError(Throwable) : void</text><ellipse cx="363" cy="1434.5234" fill="#84BE84" rx="3" ry="3" style="stroke:#038048;stroke-width:1.0;"/><text fill="#000000" font-family="sans-serif" font-size="14" lengthAdjust="spacing" textLength="132" x="372" y="1438.752">onCompleted() : void</text></g><g id="elem_GMN21"><path d="M826,920 L826,979.0547 L984,979.0547 L984,930 L974,920 L826,920 " fill="#FEFFDD" style="stroke:#181818;stroke-width:0.5;"/><path d="M974,920 L974,930 L984,930 L974,920 " fill="#FEFFDD" style="stroke:#181818;stroke-width:1.0;"/><text fill="#000000" font-family="sans-serif" font-size="13" font-weight="bold" lengthAdjust="spacing" textLength="111" x="832" y="938.4951">Singleton Pattern</text><text fill="#000000" font-family="sans-serif" font-size="13" lengthAdjust="spacing" textLength="137" x="832" y="954.8467">Garante &#250;nica inst&#226;ncia</text><text fill="#000000" font-family="sans-serif" font-size="13" lengthAdjust="spacing" textLength="124" x="832" y="971.1982">para toda a aplica&#231;&#227;o</text></g><g id="elem_GMN24"><path d="M826.5,1160.5 L826.5,1219.5547 L1025.5,1219.5547 L1025.5,1170.5 L1015.5,1160.5 L826.5,1160.5 " fill="#FEFFDD" style="stroke:#181818;stroke-width:0.5;"/><path d="M1015.5,1160.5 L1015.5,1170.5 L1025.5,1170.5 L1015.5,1160.5 " fill="#FEFFDD" style="stroke:#181818;stroke-width:1.0;"/><text fill="#000000" font-family="sans-serif" font-size="13" font-weight="bold" lengthAdjust="spacing" textLength="152" x="832.5" y="1178.9951">Daemon Thread Pattern</text><text fill="#000000" font-family="sans-serif" font-size="13" lengthAdjust="spacing" textLength="178" x="832.5" y="1195.3467">Thread executa continuamente</text><text fill="#000000" font-family="sans-serif" font-size="13" lengthAdjust="spacing" textLength="135" x="832.5" y="1211.6982">entregando mensagens</text></g><g id="elem_GMN27"><path d="M1061,1160.5 L1061,1219.5547 L1251,1219.5547 L1251,1170.5 L1241,1160.5 L1061,1160.5 " fill="#FEFFDD" style="stroke:#181818;stroke-width:0.5;"/><path d="M1241,1160.5 L1241,1170.5 L1251,1170.5 L1241,1160.5 " fill="#FEFFDD" style="stroke:#181818;stroke-width:1.0;"/><text fill="#000000" font-family="sans-serif" font-size="13" font-weight="bold" lengthAdjust="spacing" textLength="169" x="1067" y="1178.9951">Data Transfer Object (DTO)</text><text fill="#000000" font-family="sans-serif" font-size="13" lengthAdjust="spacing" textLength="131" x="1067" y="1195.3467">Envelope interno antes</text><text fill="#000000" font-family="sans-serif" font-size="13" lengthAdjust="spacing" textLength="149" x="1067" y="1211.6982">de serializar para protobuf</text></g><!--link Main to ChatServer--><g id="link_Main_ChatServer"><path codeLine="82" d="M505.96,169.21 C493.1,191.93 479.7047,215.578 465.0047,241.558 " fill="none" id="Main-to-ChatServer" style="stroke:#2E5090;stroke-width:1.0;"/><polygon fill="#2E5090" points="462.05,246.78,469.9634,240.9168,464.5123,242.4283,463.0007,236.9771,462.05,246.78" style="stroke:#2E5090;stroke-width:1.0;"/><text fill="#000000" font-family="sans-serif" font-size="13" lengthAdjust="spacing" textLength="44" x="489" y="213.4951">spawns</text></g><!--link Main to ChatClient--><g id="link_Main_ChatClient"><path codeLine="83" d="M538.83,169.31 C552.75,227.16 577.2151,328.7968 596.0251,406.8968 " fill="none" id="Main-to-ChatClient" style="stroke:#2E5090;stroke-width:1.0;"/><polygon fill="#2E5090" points="597.43,412.73,599.2115,403.0436,596.2593,407.869,591.4339,404.9168,597.43,412.73" style="stroke:#2E5090;stroke-width:1.0;"/><text fill="#000000" font-family="sans-serif" font-size="13" lengthAdjust="spacing" textLength="44" x="549" y="213.4951">spawns</text></g><!--link ChatServer to ChatServiceImpl--><g id="link_ChatServer_ChatServiceImpl"><path codeLine="84" d="M392.44,383.05 C388.96,392.91 385.96,403.08 384,413 C369.48,486.28 374.6197,565.7897 382.3897,625.8097 " fill="none" id="ChatServer-to-ChatServiceImpl" style="stroke:#2E5090;stroke-width:1.0;"/><polygon fill="#2E5090" points="383.16,631.76,385.9714,622.3209,382.5181,626.8014,378.0376,623.348,383.16,631.76" style="stroke:#2E5090;stroke-width:1.0;"/><text fill="#000000" font-family="sans-serif" font-size="13" lengthAdjust="spacing" textLength="67" x="385" y="512.9951">implements</text></g><!--link ChatServiceImpl to ChatRoom--><g id="link_ChatServiceImpl_ChatRoom"><path codeLine="85" d="M373.66,786.12 C366.42,810.79 360.0304,832.563 352.6104,857.833 " fill="none" id="ChatServiceImpl-to-ChatRoom" style="stroke:#2E5090;stroke-width:1.0;"/><polygon fill="#2E5090" points="350.92,863.59,357.2936,856.0815,352.3287,858.7925,349.6176,853.8276,350.92,863.59" style="stroke:#2E5090;stroke-width:1.0;"/><text fill="#000000" font-family="sans-serif" font-size="13" lengthAdjust="spacing" textLength="53" x="364" y="830.4951">manages</text></g><!--link ChatServiceImpl to ChatMessageEnvelope--><g id="link_ChatServiceImpl_ChatMessageEnvelope"><path codeLine="86" d="M476.02,786.28 C495.98,809.41 515.29,836.12 528,864 C567.68,951.06 575.8808,1057.5707 576.8808,1124.8007 " fill="none" id="ChatServiceImpl-to-ChatMessageEnvelope" style="stroke:#2E5090;stroke-width:1.0;"/><polygon fill="#2E5090" points="576.97,1130.8,580.8357,1121.7415,576.8956,1125.8006,572.8366,1121.8605,576.97,1130.8" style="stroke:#2E5090;stroke-width:1.0;"/><text fill="#000000" font-family="sans-serif" font-size="13" lengthAdjust="spacing" textLength="43" x="571" y="954.9951">creates</text></g><!--link ChatRoom to ClientSession--><g id="link_ChatRoom_ClientSession"><path codeLine="87" d="M286.55,1035.26 C274.78,1060.56 264.4716,1082.7003 252.9716,1107.4103 " fill="none" id="ChatRoom-to-ClientSession" style="stroke:#2E5090;stroke-width:1.0;"/><polygon fill="#2E5090" points="250.44,1112.85,257.864,1106.3782,252.5497,1108.3169,250.611,1103.0026,250.44,1112.85" style="stroke:#2E5090;stroke-width:1.0;"/><text fill="#000000" font-family="sans-serif" font-size="13" lengthAdjust="spacing" textLength="53" x="271" y="1079.4951">manages</text></g><!--link ChatRoom to ChatMessageEnvelope--><g id="link_ChatRoom_ChatMessageEnvelope"><path codeLine="88" d="M414.84,1035.26 C447.97,1066.86 480.4482,1097.8489 510.5282,1126.5389 " fill="none" id="ChatRoom-to-ChatMessageEnvelope" style="stroke:#2E5090;stroke-width:1.0;"/><polygon fill="#2E5090" points="514.87,1130.68,511.1181,1121.5738,511.2519,1127.2291,505.5966,1127.3628,514.87,1130.68" style="stroke:#2E5090;stroke-width:1.0;"/><text fill="#000000" font-family="sans-serif" font-size="13" lengthAdjust="spacing" textLength="64" x="459" y="1079.4951">broadcasts</text></g><!--link ClientSession to StreamObserver--><g id="link_ClientSession_StreamObserver"><path codeLine="89" d="M301.34,1267.07 C330.82,1293.03 358.4976,1317.4141 385.0176,1340.7741 " fill="none" id="ClientSession-to-StreamObserver" style="stroke:#2E5090;stroke-width:1.0;"/><polygon fill="#2E5090" points="389.52,1344.74,385.4103,1335.7895,385.768,1341.4351,380.1225,1341.7927,389.52,1344.74" style="stroke:#2E5090;stroke-width:1.0;"/><text fill="#000000" font-family="sans-serif" font-size="13" lengthAdjust="spacing" textLength="28" x="352" y="1311.4951">uses</text></g><!--link ChatClient to StreamObserver--><g id="link_ChatClient_StreamObserver"><path codeLine="90" d="M642.83,602.04 C677.49,745.83 740.49,1014.84 751,1113 C758.29,1181.06 788.93,1210.03 751,1267 C704.4,1336.99 617.1329,1367.4403 545.9729,1381.7103 " fill="none" id="ChatClient-to-StreamObserver" style="stroke:#2E5090;stroke-width:1.0;"/><polygon fill="#2E5090" points="540.09,1382.89,549.7008,1385.0423,544.9924,1381.9069,548.1278,1377.1985,540.09,1382.89" style="stroke:#2E5090;stroke-width:1.0;"/><text fill="#000000" font-family="sans-serif" font-size="13" lengthAdjust="spacing" textLength="67" x="739" y="954.9951">implements</text></g><!--link ChatRoom to GMN21--><g id="link_ChatRoom_GMN21"><path d="M457.3,863.97 C488.32,847.89 522.11,833.47 555.5,825 C647.26,801.71 680.23,790.79 768.5,825 C817.4,843.95 859.52,889.48 883.57,919.91 " fill="none" id="ChatRoom-GMN21" style="stroke:#2E5090;stroke-width:1.0;stroke-dasharray:7.0,7.0;"/></g><!--link ClientSession to GMN24--><g id="link_ClientSession_GMN24"><path d="M327.03,1112.87 C355.92,1096.87 387.83,1082.36 419.5,1074 C569.48,1034.43 621.14,1025.59 768.5,1074 C820.12,1090.96 868.74,1132.03 897.94,1160.45 " fill="none" id="ClientSession-GMN24" style="stroke:#2E5090;stroke-width:1.0;stroke-dasharray:7.0,7.0;"/></g><!--link ChatMessageEnvelope to GMN27--><g id="link_ChatMessageEnvelope_GMN27"><path d="M673.05,1130.97 C765.41,1082.68 907.41,1029.1 1025.5,1074 C1070.69,1091.18 1110.23,1131.98 1133.62,1160.3 " fill="none" id="ChatMessageEnvelope-GMN27" style="stroke:#2E5090;stroke-width:1.0;stroke-dasharray:7.0,7.0;"/></g><!--SRC=[ZLRDRjj64BxpAGRfmPHgjK7H0YbX66XakSWXTMehfwA74JcYDYPtsTsbd3RmooI7Fa4llVh5EiiVQKcjh4e7aPfl_hwPsTapkAAraEBfxwT_o416GCQAGaNcNiWADPQmmlG-rwgMsLmLIiDNrmltzH1fWSQy7iCMhww_ltvr05Cw8zr1lblyyFB7bnu4jLOFnuHcWvbw43A7DHQ6ekWCtc6gB46bXKn5XKLKSHIO4xou5rfyasxGle1FKGJyEOEv2u2pxE72D88cBdYBGZ8Kki_NyCbOj29zX98byPrbfVottpd4t4mWWQqIsGuz0yxSakvWKAgCpk6upcFaUPvpb7UajwGz_pEebBO926cz_qm3Iw25Uy7kRSIiqUXEF36decry4BOJg2f-FhHv8OXD-g5jbE7GslHEHCmba9AAXFcLN9XithwFGczzzEmvy-SGoaDJBep7Sys4I2mfb1d9x2qPmqvtLMbV0s1DAOajTNWJ1mgyLhf4srjqGNVFK9hSuJqwWkKLARqfgs90P9yFPUyv4-CAQozQGvT34ksjKcNI67DF8KvkkuTR-gCcno0R8YnlLctNdE38o-X_Q8u9MvIL_VEatWosM8WCBRtl2jULvlaET0aFQDkDff3y95CA4EE6nHYXf76zLtMidaFRQdUjx38qxpdPDvtTfX42d7zGkoDXq8C3unv-fHLcAHhhyWumlf1RAbGLQis2S4id-tssT-7RVPxNaVC1nMljskrWn5CbBMSOa5Z1usMnh19esREZ6HzvY_k2zB-TrYGGgy_g8CgUZq0ytR3_MbFDujU5IdcHvCthXHUEFsPcqBtzAJl7eXZsjP-O7ze-fIEAazEp5-Y0r7LY4JobpvWrdlWrfcI-_Md52Q1LxLOJlM0qb1VBoy6QK_8N-cZZPS2naWlUnpfURdWhuwgW86Qk-5GZIzb1X8zkHTzIWUtj8cfMx6nswM-y14o53t8ax7REJkWf-FhzaSfBnyLGiiuUsmjxXUOKINYRkprq73OUYWHIfizs6esH1ZheoQ7PFIXeRpUfZ1vOSIh3OZ6QMxorsd4I17dfDxUYJ3VNkPglSk8llZMPIBfxaXRvne9Q-qVQT7h7FSi5v03UeUMcaTCf__yptxcuXU3fNobIR4xQfyzyRKAMkViOM9KXyBSgMCuL_g8YRcbmZgAnkz6nE9rU8PNia3kBC1luxVwYZvJM5fi3HyWQNNB4OlxXXOSoKppXqZ7BxN7Kxo7_dNUslEJyp9hfkrbzeDH2VBMycJGXx6hLp91Ku8XmKyNNOwPSe2DLjonKMbcrgjVx6Fu3]--></g></svg>